<svg width="27" height="25" viewBox="0 0 27 25" fill="none" xmlns="http://www.w3.org/2000/svg">
<path fill-rule="evenodd" clip-rule="evenodd" d="M4.98689 23.7428C4.86047 24.4635 5.57151 25.0275 6.19948 24.7048L13.332 21.0389L20.4645 24.7048C21.0924 25.0275 21.8035 24.4635 21.677 23.7428L20.3287 16.0574L26.0525 10.6029C26.5874 10.0931 26.3105 9.16107 25.5939 9.05927L17.6339 7.92848L14.0847 0.897847C13.765 0.26452 12.8989 0.26452 12.5792 0.897847L9.03002 7.92848L1.07 9.05927C0.353392 9.16107 0.0764918 10.0931 0.61141 10.6029L6.3352 16.0574L4.98689 23.7428ZM12.9569 19.2446L6.96753 22.323L8.09569 15.8924C8.14887 15.5892 8.04888 15.2788 7.83123 15.0714L3.10761 10.57L9.69261 9.63454C9.96483 9.59587 10.2025 9.42202 10.3309 9.16764L13.332 3.22285L16.333 9.16764C16.4614 9.42202 16.6991 9.59587 16.9713 9.63454L23.5563 10.57L18.8327 15.0714C18.6151 15.2788 18.5151 15.5892 18.5682 15.8924L19.6964 22.323L13.7071 19.2446C13.4705 19.123 13.1935 19.123 12.9569 19.2446Z" fill="#9D875C"/>
</svg>
